<svg width="75" height="75" viewBox="0 0 75 75" fill="none" xmlns="http://www.w3.org/2000/svg">
<ellipse cx="23.9352" cy="27.1221" rx="23.9352" ry="27.1221" fill="#FFC700"/>
<path d="M31.9826 34.9333C35.869 34.9333 39.0196 30.0275 39.0196 23.976C39.0196 17.9244 35.869 13.0186 31.9826 13.0186C28.0962 13.0186 24.9457 17.9244 24.9457 23.976C24.9457 30.0275 28.0962 34.9333 31.9826 34.9333Z" stroke="#1D1D1B" stroke-miterlimit="10"/>
<path d="M51.6573 34.9333C55.5437 34.9333 58.6943 30.0275 58.6943 23.976C58.6943 17.9244 55.5437 13.0186 51.6573 13.0186C47.7709 13.0186 44.6204 17.9244 44.6204 23.976C44.6204 30.0275 47.7709 34.9333 51.6573 34.9333Z" stroke="#1D1D1B" stroke-miterlimit="10"/>
<path d="M18.2917 47.9376C21.3823 47.0252 22.9746 42.3139 21.8482 37.4145C20.7218 32.5151 17.3032 29.2829 14.2127 30.1952C11.1221 31.1076 9.52982 35.8189 10.6562 40.7183C11.7826 45.6178 15.2011 48.8499 18.2917 47.9376Z" stroke="#1D1D1B" stroke-miterlimit="10"/>
<path d="M73.2412 39.4539C74.2126 34.5119 72.4729 29.8679 69.3555 29.0811C66.2381 28.2944 62.9235 31.6628 61.9522 36.6047C60.9808 41.5467 62.7205 46.1907 65.8379 46.9775C68.9553 47.7642 72.2699 44.3958 73.2412 39.4539Z" stroke="#1D1D1B" stroke-miterlimit="10"/>
<path d="M60.3792 59.0177C62.0451 60.9814 62.9834 63.6068 62.9834 66.3407C62.9834 70.5718 59.958 74 56.2241 74L48.6988 71.9062C44.1224 70.6368 39.3449 70.6368 34.7781 71.9062L27.2528 74C23.5189 74 20.4935 70.5718 20.4935 66.3407C20.4935 63.6176 21.4222 60.9922 23.0881 59.0286L31.1112 49.5684L32.8728 47.4854C37.9567 41.486 45.5107 41.486 50.5945 47.4854L52.3561 49.5684L60.3792 59.0177Z" stroke="#1D1D1B" stroke-miterlimit="10"/>
</svg>
