<svg width="65" height="65" viewBox="0 0 65 65" fill="none" xmlns="http://www.w3.org/2000/svg">
<circle cx="25" cy="25" r="25" fill="#FFC700"/>
<path d="M32.5992 31.9683C35.5264 31.9683 37.8995 27.946 37.8995 22.9842C37.8995 18.0223 35.5264 14 32.5992 14C29.672 14 27.299 18.0223 27.299 22.9842C27.299 27.946 29.672 31.9683 32.5992 31.9683Z" stroke="#1D1D1B" stroke-miterlimit="10"/>
<path d="M47.4183 31.9683C50.3455 31.9683 52.7185 27.946 52.7185 22.9842C52.7185 18.0223 50.3455 14 47.4183 14C44.491 14 42.118 18.0223 42.118 22.9842C42.118 27.946 44.491 31.9683 47.4183 31.9683Z" stroke="#1D1D1B" stroke-miterlimit="10"/>
<path d="M22.2872 42.6307C24.6151 41.8827 25.8144 38.0198 24.966 34.0026C24.1176 29.9855 21.5427 27.3354 19.2149 28.0834C16.8871 28.8315 15.6878 32.6944 16.5362 36.7115C17.3846 40.7287 19.9594 43.3788 22.2872 42.6307Z" stroke="#1D1D1B" stroke-miterlimit="10"/>
<path d="M63.6753 35.6748C64.407 31.6228 63.0966 27.8151 60.7486 27.17C58.4006 26.5249 55.904 29.2868 55.1724 33.3388C54.4408 37.3908 55.7511 41.1985 58.0991 41.8436C60.4472 42.4887 62.9437 39.7268 63.6753 35.6748Z" stroke="#1D1D1B" stroke-miterlimit="10"/>
<path d="M53.9876 51.7157C55.2424 53.3257 55.9491 55.4784 55.9491 57.72C55.9491 61.1891 53.6703 64 50.858 64L45.1899 62.2832C41.743 61.2425 38.1446 61.2425 34.7048 62.2832L29.0368 64C26.2244 64 23.9457 61.1891 23.9457 57.72C23.9457 55.4873 24.6452 53.3346 25.8999 51.7246L31.9429 43.968L33.2698 42.2601C37.099 37.341 42.7886 37.341 46.6178 42.2601L47.9446 43.968L53.9876 51.7157Z" stroke="#1D1D1B" stroke-miterlimit="10"/>
</svg>
